<svg width="2192" height="2530" viewBox="0 0 2192 2530" fill="none" xmlns="http://www.w3.org/2000/svg">
<rect x="1493" y="1387" width="90" height="90" rx="20" fill="#61D0FF"/>
<rect x="23" y="1716" width="90" height="90" rx="20" fill="#A277FF"/>
<rect x="867" y="2098" width="90" height="90" rx="20" fill="#7FE4C2"/>
<rect x="1688" y="2301" width="90" height="90" rx="20" fill="#CD5757"/>
<rect x="553" y="2143" width="90" height="90" rx="20" fill="#B7B2B2"/>
<rect y="2400" width="90" height="90" rx="20" fill="#FFCA85"/>
<rect x="273" y="1930" width="120" height="120" rx="20" fill="#61D0FF"/>
<rect x="734" y="2331" width="120" height="120" rx="20" fill="#A277FF"/>
<rect x="22" y="1957" width="120" height="120" rx="20" fill="#7FE4C2"/>
<rect x="239" y="1251" width="120" height="120" rx="20" fill="#CD5757"/>
<rect x="2040" y="1942" width="120" height="120" rx="20" fill="#B7B2B2"/>
<rect x="2050" y="1111" width="120" height="120" rx="20" fill="#B7B2B2"/>
<rect x="1972" y="2325" width="120" height="120" rx="20" fill="#4D4D4D"/>
<rect x="273" y="1661" width="120" height="120" rx="20" fill="#FFCA85"/>
<rect x="1104" y="2306" width="110" height="110" rx="20" fill="#61D0FF"/>
<rect x="1773" y="1393" width="110" height="110" rx="20" fill="#A277FF"/>
<rect x="443" y="1132" width="110" height="110" rx="20" fill="#7FE4C2"/>
<rect x="483" y="1458" width="90" height="90" rx="20" fill="#4D4D4D"/>
<rect x="299" y="2196" width="110" height="110" rx="20" fill="#CD5757"/>
<rect x="1396" y="2197" width="110" height="110" rx="20" fill="#B7B2B2"/>
<rect x="463" y="2351" width="110" height="110" rx="20" fill="#4D4D4D"/>
<rect x="1538" y="1111" width="110" height="110" rx="20" fill="#FFCA85"/>
<rect x="32" y="1164" width="100" height="100" rx="20" fill="#61D0FF"/>
<rect x="573" y="1792" width="100" height="100" rx="20" fill="#A277FF"/>
<rect x="1872" y="1192" width="100" height="100" rx="20" fill="#7FE4C2"/>
<rect x="2050" y="1681" width="100" height="100" rx="20" fill="#CD5757"/>
<rect x="92" y="1511" width="100" height="100" rx="20" fill="#B7B2B2"/>
<rect x="1228" y="1121" width="100" height="100" rx="20" fill="#4D4D4D"/>
<rect x="2092" y="1358" width="100" height="100" rx="20" fill="#FFCA85"/>
<rect x="688" y="1297" width="90" height="90" rx="20" fill="#A277FF"/>
<rect x="1960" y="73" width="90" height="90" rx="20" fill="#A277FF"/>
<rect x="1734" y="1702" width="90" height="90" rx="20" fill="#7FE4C2"/>
<rect x="1218" y="1636" width="90" height="90" rx="20" fill="#B7B2B2"/>
<rect x="1603" y="2077" width="90" height="90" rx="20" fill="#FFCA85"/>
<rect x="938" y="1511" width="120" height="120" rx="20" fill="#61D0FF"/>
<rect x="1399" y="1912" width="120" height="120" rx="20" fill="#A277FF"/>
<rect x="687" y="1538" width="120" height="120" rx="20" fill="#7FE4C2"/>
<rect x="938" y="1242" width="120" height="120" rx="20" fill="#FFCA85"/>
<rect x="1769" y="1887" width="110" height="110" rx="20" fill="#61D0FF"/>
<rect x="1163" y="1351" width="110" height="110" rx="20" fill="#7FE4C2"/>
<rect x="902" y="1802" width="110" height="110" rx="20" fill="#CD5757"/>
<rect x="1128" y="1932" width="110" height="110" rx="20" fill="#4D4D4D"/>
<rect x="747" y="1121" width="100" height="100" rx="20" fill="#B7B2B2"/>
<rect x="1483" y="1655" width="100" height="100" rx="20" fill="#FFCA85"/>
<rect x="45" y="258" width="90" height="90" rx="20" fill="#A277FF"/>
<rect x="889" y="640" width="90" height="90" rx="20" fill="#7FE4C2"/>
<rect x="1747" y="877" width="90" height="90" rx="20" fill="#CD5757"/>
<rect x="575" y="685" width="90" height="90" rx="20" fill="#B7B2B2"/>
<rect x="22" y="942" width="90" height="90" rx="20" fill="#FFCA85"/>
<rect x="295" y="472" width="120" height="120" rx="20" fill="#61D0FF"/>
<rect x="756" y="873" width="120" height="120" rx="20" fill="#A277FF"/>
<rect x="44" y="499" width="120" height="120" rx="20" fill="#7FE4C2"/>
<rect x="2062" y="484" width="120" height="120" rx="20" fill="#B7B2B2"/>
<rect x="1994" y="867" width="120" height="120" rx="20" fill="#4D4D4D"/>
<rect x="1605" y="58" width="120" height="120" rx="20" fill="#4D4D4D"/>
<rect x="295" y="203" width="120" height="120" rx="20" fill="#FFCA85"/>
<rect x="1126" y="848" width="110" height="110" rx="20" fill="#61D0FF"/>
<rect x="505" width="90" height="90" rx="20" fill="#4D4D4D"/>
<rect x="321" y="738" width="110" height="110" rx="20" fill="#CD5757"/>
<rect x="1418" y="739" width="110" height="110" rx="20" fill="#B7B2B2"/>
<rect x="485" y="893" width="110" height="110" rx="20" fill="#4D4D4D"/>
<rect x="595" y="334" width="100" height="100" rx="20" fill="#A277FF"/>
<rect x="2072" y="223" width="100" height="100" rx="20" fill="#CD5757"/>
<rect x="114" y="53" width="100" height="100" rx="20" fill="#B7B2B2"/>
<rect x="1756" y="244" width="90" height="90" rx="20" fill="#7FE4C2"/>
<rect x="1260" y="133" width="90" height="90" rx="20" fill="#B7B2B2"/>
<rect x="1733" y="619" width="90" height="90" rx="20" fill="#FFCA85"/>
<rect x="960" y="53" width="120" height="120" rx="20" fill="#61D0FF"/>
<rect x="1421" y="454" width="120" height="120" rx="20" fill="#A277FF"/>
<rect x="709" y="80" width="120" height="120" rx="20" fill="#7FE4C2"/>
<rect x="1791" y="429" width="110" height="110" rx="20" fill="#61D0FF"/>
<rect x="924" y="344" width="110" height="110" rx="20" fill="#CD5757"/>
<rect x="1150" y="474" width="110" height="110" rx="20" fill="#4D4D4D"/>
<rect x="1459" y="253" width="100" height="100" rx="20" fill="#FFCA85"/>
</svg>
