<svg width="37" height="37" viewBox="0 0 37 37" fill="none" xmlns="http://www.w3.org/2000/svg">
<path d="M18.5 20.4759L24.262 26.238C24.5216 26.4976 24.8479 26.6304 25.241 26.6364C25.634 26.6424 25.9663 26.5096 26.2379 26.238C26.5096 25.9663 26.6454 25.637 26.6454 25.25C26.6454 24.863 26.5096 24.5337 26.2379 24.2621L20.4759 18.5L26.2379 12.738C26.4975 12.4784 26.6303 12.152 26.6363 11.759C26.6424 11.366 26.5096 11.0337 26.2379 10.7621C25.9663 10.4904 25.637 10.3546 25.25 10.3546C24.863 10.3546 24.5336 10.4904 24.262 10.7621L18.5 16.5241L12.7379 10.7621C12.4783 10.5025 12.152 10.3696 11.759 10.3636C11.366 10.3576 11.0336 10.4904 10.762 10.7621C10.4904 11.0337 10.3545 11.363 10.3545 11.75C10.3545 12.137 10.4904 12.4663 10.762 12.738L16.524 18.5L10.762 24.2621C10.5024 24.5217 10.3696 24.848 10.3636 25.241C10.3575 25.634 10.4904 25.9663 10.762 26.238C11.0336 26.5096 11.363 26.6454 11.75 26.6454C12.137 26.6454 12.4663 26.5096 12.7379 26.238L18.5 20.4759ZM18.5031 36.3125C16.0395 36.3125 13.7238 35.845 11.556 34.91C9.38825 33.975 7.50259 32.7061 5.89906 31.1033C4.2955 29.5004 3.02602 27.6156 2.09061 25.4488C1.1552 23.282 0.6875 20.9668 0.6875 18.5032C0.6875 16.0395 1.155 13.7238 2.09 11.5561C3.025 9.38831 4.29391 7.50266 5.89672 5.89913C7.49956 4.29556 9.38439 3.02608 11.5512 2.09067C13.718 1.15527 16.0332 0.687561 18.4968 0.687561C20.9604 0.687561 23.2761 1.15506 25.4439 2.09006C27.6117 3.02506 29.4973 4.29397 31.1008 5.89678C32.7044 7.49962 33.9739 9.38445 34.9093 11.5513C35.8447 13.718 36.3124 16.0333 36.3124 18.4969C36.3124 20.9605 35.8449 23.2762 34.9099 25.4439C33.9749 27.6117 32.706 29.4974 31.1032 31.1009C29.5003 32.7045 27.6155 33.974 25.4487 34.9094C23.2819 35.8448 20.9667 36.3125 18.5031 36.3125ZM18.5 33.5C22.6875 33.5 26.2343 32.0469 29.1406 29.1406C32.0468 26.2344 33.5 22.6875 33.5 18.5C33.5 14.3125 32.0468 10.7656 29.1406 7.85939C26.2343 4.95314 22.6875 3.50002 18.5 3.50002C14.3125 3.50002 10.7656 4.95314 7.85933 7.85939C4.95308 10.7656 3.49995 14.3125 3.49995 18.5C3.49995 22.6875 4.95308 26.2344 7.85933 29.1406C10.7656 32.0469 14.3125 33.5 18.5 33.5Z" fill="#FFCA85"/>
</svg>
