<svg width="34" height="34" viewBox="0 0 34 34" fill="none" xmlns="http://www.w3.org/2000/svg">
<g id="cloud-arrow-down 1">
<path id="Vector" fill-rule="evenodd" clip-rule="evenodd" d="M16.2476 23.0648C16.3463 23.1637 16.4636 23.2422 16.5927 23.2958C16.7217 23.3493 16.8601 23.3769 16.9999 23.3769C17.1396 23.3769 17.278 23.3493 17.4071 23.2958C17.5362 23.2422 17.6534 23.1637 17.7521 23.0648L22.0021 18.8148C22.1009 18.716 22.1793 18.5987 22.2327 18.4696C22.2862 18.3405 22.3137 18.2022 22.3137 18.0625C22.3137 17.9228 22.2862 17.7845 22.2327 17.6554C22.1793 17.5263 22.1009 17.409 22.0021 17.3102C21.9033 17.2115 21.7861 17.1331 21.657 17.0796C21.5279 17.0262 21.3896 16.9987 21.2499 16.9987C21.1102 16.9987 20.9718 17.0262 20.8428 17.0796C20.7137 17.1331 20.5964 17.2115 20.4976 17.3102L18.0624 19.7476V11.6875C18.0624 11.4057 17.9504 11.1355 17.7512 10.9362C17.5519 10.7369 17.2817 10.625 16.9999 10.625C16.7181 10.625 16.4478 10.7369 16.2486 10.9362C16.0493 11.1355 15.9374 11.4057 15.9374 11.6875V19.7476L13.5021 17.3102C13.3026 17.1107 13.032 16.9987 12.7499 16.9987C12.4677 16.9987 12.1971 17.1107 11.9976 17.3102C11.7981 17.5098 11.686 17.7804 11.686 18.0625C11.686 18.3446 11.7981 18.6152 11.9976 18.8148L16.2476 23.0648Z" fill="#EDECEE"/>
<path id="Vector_2" d="M9.36275 7.10175C11.4866 5.27029 14.1955 4.25879 17 4.25C22.7162 4.25 27.4614 8.5 27.9778 13.9804C31.3608 14.4585 34 17.2911 34 20.7676C34 24.5841 30.8168 27.625 26.9599 27.625H8.03463C3.6295 27.625 0 24.1528 0 19.8007C0 16.0544 2.69025 12.9519 6.25175 12.1656C6.55562 10.3317 7.735 8.50425 9.36275 7.10175ZM10.7504 8.71037C9.14175 10.098 8.30025 11.7704 8.30025 13.0794V14.0314L7.35462 14.1355C4.386 14.4606 2.125 16.898 2.125 19.8007C2.125 22.9181 4.73875 25.5 8.03463 25.5H26.9599C29.7075 25.5 31.875 23.3495 31.875 20.7676C31.875 18.1836 29.7075 16.0331 26.9599 16.0331H25.8974V14.9706C25.8995 10.2531 21.947 6.375 17 6.375C14.7047 6.38417 12.4883 7.21105 10.7504 8.71037Z" fill="#EDECEE"/>
</g>
</svg>
