<svg width="34" height="34" viewBox="0 0 34 34" fill="none" xmlns="http://www.w3.org/2000/svg">
<path d="M17 13.8125C17.2818 13.8125 17.552 13.9244 17.7513 14.1237C17.9506 14.323 18.0625 14.5932 18.0625 14.875V18.0625H21.25C21.5318 18.0625 21.802 18.1744 22.0013 18.3737C22.2006 18.573 22.3125 18.8432 22.3125 19.125C22.3125 19.4068 22.2006 19.677 22.0013 19.8763C21.802 20.0756 21.5318 20.1875 21.25 20.1875H18.0625V23.375C18.0625 23.6568 17.9506 23.927 17.7513 24.1263C17.552 24.3256 17.2818 24.4375 17 24.4375C16.7182 24.4375 16.448 24.3256 16.2487 24.1263C16.0494 23.927 15.9375 23.6568 15.9375 23.375V20.1875H12.75C12.4682 20.1875 12.198 20.0756 11.9987 19.8763C11.7994 19.677 11.6875 19.4068 11.6875 19.125C11.6875 18.8432 11.7994 18.573 11.9987 18.3737C12.198 18.1744 12.4682 18.0625 12.75 18.0625H15.9375V14.875C15.9375 14.5932 16.0494 14.323 16.2487 14.1237C16.448 13.9244 16.7182 13.8125 17 13.8125Z" fill="#FFCA85"/>
<path d="M29.75 9.5625V29.75C29.75 30.8772 29.3022 31.9582 28.5052 32.7552C27.7082 33.5522 26.6272 34 25.5 34H8.5C7.37283 34 6.29183 33.5522 5.4948 32.7552C4.69777 31.9582 4.25 30.8772 4.25 29.75V4.25C4.25 3.12283 4.69777 2.04183 5.4948 1.2448C6.29183 0.447767 7.37283 0 8.5 0L20.1875 0L29.75 9.5625ZM23.375 9.5625C22.5296 9.5625 21.7189 9.22668 21.1211 8.6289C20.5233 8.03113 20.1875 7.22038 20.1875 6.375V2.125H8.5C7.93641 2.125 7.39591 2.34888 6.9974 2.7474C6.59888 3.14591 6.375 3.68641 6.375 4.25V29.75C6.375 30.3136 6.59888 30.8541 6.9974 31.2526C7.39591 31.6511 7.93641 31.875 8.5 31.875H25.5C26.0636 31.875 26.6041 31.6511 27.0026 31.2526C27.4011 30.8541 27.625 30.3136 27.625 29.75V9.5625H23.375Z" fill="#FFCA85"/>
</svg>
