<svg width="34" height="34" viewBox="0 0 34 34" fill="none" xmlns="http://www.w3.org/2000/svg">
<g id="boxes 1" clip-path="url(#clip0_348_358)">
<path id="Vector" d="M16.473 0.139907C16.6335 0.0482237 16.8152 0 17 0C17.1848 0 17.3665 0.0482237 17.527 0.139907L25.4958 4.69378C25.6584 4.78667 25.7935 4.9209 25.8876 5.08286C25.9816 5.24481 26.0312 5.42875 26.0312 5.61603V14.1054L33.4645 18.3554C33.6265 18.4479 33.7613 18.5815 33.8553 18.7426C33.9493 18.9038 33.9992 19.0868 34 19.2734V28.3812C33.9999 28.5684 33.9504 28.7524 33.8563 28.9143C33.7623 29.0763 33.6271 29.2105 33.4645 29.3034L25.4958 33.8573C25.3352 33.949 25.1536 33.9972 24.9688 33.9972C24.7839 33.9972 24.6023 33.949 24.4417 33.8573L17 29.6073L9.55825 33.8594C9.39774 33.9511 9.2161 33.9993 9.03125 33.9993C8.8464 33.9993 8.66476 33.9511 8.50425 33.8594L0.5355 29.3055C0.37288 29.2126 0.237702 29.0784 0.143662 28.9165C0.0496214 28.7545 6.04075e-05 28.5706 0 28.3833L0 19.2755C6.04075e-05 19.0883 0.0496214 18.9043 0.143662 18.7424C0.237702 18.5804 0.37288 18.4462 0.5355 18.3533L7.96875 14.1054V5.61603C7.96881 5.42875 8.01837 5.24481 8.11241 5.08286C8.20645 4.9209 8.34163 4.78667 8.50425 4.69378L16.473 0.139907ZM9.03125 15.9457L3.2045 19.2755L9.03125 22.6054L14.858 19.2755L9.03125 15.9457ZM15.9375 21.1073L10.0938 24.4457V31.1054L15.9375 27.767V21.1073ZM18.0625 27.767L23.9062 31.1054V24.4457L18.0625 21.1073V27.767ZM19.142 19.2755L24.9688 22.6054L30.7955 19.2755L24.9688 15.9457L19.142 19.2755ZM23.9062 14.1054V7.44566L18.0625 10.7862V17.4459L23.9062 14.1054ZM15.9375 17.4459V10.7862L10.0938 7.44566V14.1054L15.9375 17.4459ZM11.1733 5.61603L17 8.94591L22.8267 5.61603L17 2.28616L11.1733 5.61603ZM31.875 21.1073L26.0312 24.4457V31.1054L31.875 27.767V21.1073ZM7.96875 31.1054V24.4457L2.125 21.1073V27.767L7.96875 31.1054Z" fill="#FFCA85"/>
</g>
<defs>
<clipPath id="clip0_348_358">
<rect width="34" height="34" fill="white"/>
</clipPath>
</defs>
</svg>
