<svg width="36" height="36" viewBox="0 0 36 36" fill="none" xmlns="http://www.w3.org/2000/svg">
<path id="Vector" d="M18 36C15.5231 36 13.1897 35.5263 11 34.5789C8.81027 33.6314 6.90322 32.3455 5.27885 30.7211C3.65448 29.0968 2.36858 27.1897 1.42115 25C0.473717 22.8103 0 20.4769 0 18C0 15.5154 0.473717 13.1801 1.42115 10.9943C2.36858 8.80835 3.65448 6.90322 5.27885 5.27885C6.90322 3.65448 8.81027 2.36858 11 1.42115C13.1897 0.473715 15.5231 0 18 0C20.4846 0 22.8199 0.473715 25.0058 1.42115C27.1917 2.36858 29.0968 3.65448 30.7211 5.27885C32.3455 6.90322 33.6314 8.80835 34.5789 10.9943C35.5263 13.1801 36 15.5154 36 18C36 20.4769 35.5263 22.8103 34.5789 25C33.6314 27.1897 32.3455 29.0968 30.7211 30.7211C29.0968 32.3455 27.1917 33.6314 25.0058 34.5789C22.8199 35.5263 20.4846 36 18 36ZM18 34.0154C19.1744 32.5077 20.1423 31.0269 20.9039 29.5731C21.6654 28.1192 22.2846 26.4923 22.7616 24.6923H13.2385C13.7667 26.5949 14.3987 28.2731 15.1346 29.7269C15.8705 31.1808 16.8256 32.6103 18 34.0154ZM15.4538 33.7154C14.5205 32.6154 13.6686 31.2558 12.8981 29.6366C12.1276 28.0173 11.5538 26.3692 11.1769 24.6923H3.5077C4.65387 27.1795 6.27887 29.2193 8.3827 30.8116C10.4865 32.4039 12.8436 33.3718 15.4538 33.7154ZM20.5461 33.7154C23.1564 33.3718 25.5135 32.4039 27.6173 30.8116C29.7211 29.2193 31.3461 27.1795 32.4923 24.6923H24.8231C24.318 26.3949 23.6801 28.0558 22.9097 29.675C22.1391 31.2942 21.3513 32.641 20.5461 33.7154ZM2.6923 22.6923H10.7615C10.6102 21.8718 10.5032 21.0725 10.4404 20.2943C10.3776 19.516 10.3462 18.7513 10.3462 18C10.3462 17.2487 10.3776 16.484 10.4404 15.7057C10.5032 14.9275 10.6102 14.1282 10.7615 13.3077H2.6923C2.47437 14 2.3045 14.7545 2.1827 15.5711C2.0609 16.3878 2 17.1974 2 18C2 18.8026 2.0609 19.6122 2.1827 20.4289C2.3045 21.2455 2.47437 22 2.6923 22.6923ZM12.7615 22.6923H23.2384C23.3897 21.8718 23.4968 21.0853 23.5596 20.3327C23.6224 19.5801 23.6539 18.8026 23.6539 18C23.6539 17.1974 23.6224 16.4199 23.5596 15.6673C23.4968 14.9147 23.3897 14.1282 23.2384 13.3077H12.7615C12.6102 14.1282 12.5032 14.9147 12.4404 15.6673C12.3776 16.4199 12.3462 17.1974 12.3462 18C12.3462 18.8026 12.3776 19.5801 12.4404 20.3327C12.5032 21.0853 12.6102 21.8718 12.7615 22.6923ZM25.2384 22.6923H33.3077C33.5256 22 33.6955 21.2455 33.8173 20.4289C33.9391 19.6122 34 18.8026 34 18C34 17.1974 33.9391 16.3878 33.8173 15.5711C33.6955 14.7545 33.5256 14 33.3077 13.3077H25.2384C25.3897 14.1282 25.4968 14.9275 25.5597 15.7057C25.6224 16.484 25.6539 17.2487 25.6539 18C25.6539 18.7513 25.6224 19.516 25.5597 20.2943C25.4968 21.0725 25.3897 21.8718 25.2384 22.6923ZM24.8231 11.3077H32.4923C31.3205 8.76923 29.7147 6.72948 27.675 5.18845C25.6353 3.64745 23.259 2.66668 20.5461 2.24615C21.4795 3.47435 22.3186 4.87883 23.0634 6.4596C23.8083 8.04037 24.3949 9.6564 24.8231 11.3077ZM13.2385 11.3077H22.7616C22.2334 9.43077 21.5821 7.73333 20.8077 6.2154C20.0333 4.69743 19.0974 3.28717 18 1.9846C16.9026 3.28717 15.9667 4.69743 15.1923 6.2154C14.4179 7.73333 13.7667 9.43077 13.2385 11.3077ZM3.5077 11.3077H11.1769C11.6051 9.6564 12.1916 8.04037 12.9365 6.4596C13.6814 4.87883 14.5205 3.47435 15.4538 2.24615C12.7154 2.66668 10.3327 3.65387 8.30575 5.2077C6.27885 6.76153 4.6795 8.79487 3.5077 11.3077Z" fill="#B7B2B2"/>
</svg>
