<svg width="34" height="34" viewBox="0 0 34 34" fill="none" xmlns="http://www.w3.org/2000/svg">
<path d="M1.06254 6.375L1.14754 8.22375C0.586896 9.03878 0.329731 10.0246 0.420793 11.0096L1.77442 25.8846C1.87037 26.9406 2.35757 27.9225 3.14036 28.6377C3.92315 29.3528 4.945 29.7496 6.00529 29.75H19.125V27.625H6.00529C5.47516 27.6245 4.96436 27.4259 4.57316 27.0681C4.18197 26.7103 3.93863 26.2192 3.89092 25.6912L2.53729 10.8162C2.51073 10.5223 2.5457 10.226 2.63999 9.94622C2.73429 9.66649 2.88582 9.40948 3.08495 9.19156C3.28407 8.97365 3.52642 8.79961 3.79653 8.68054C4.06664 8.56147 4.3586 8.49998 4.65379 8.5H29.3463C29.6415 8.49998 29.9334 8.56147 30.2036 8.68054C30.4737 8.79961 30.716 8.97365 30.9151 9.19156C31.1143 9.40948 31.2658 9.66649 31.3601 9.94622C31.4544 10.226 31.4894 10.5223 31.4628 10.8162L30.8975 17H33.0332L33.5772 11.0096C33.6306 10.4216 33.5609 9.82898 33.3726 9.26942C33.1843 8.70986 32.8815 8.19567 32.4834 7.75963C32.0854 7.32359 31.6008 6.97527 31.0607 6.73687C30.5206 6.49848 29.9367 6.37523 29.3463 6.375H20.8845C19.7575 6.37476 18.6766 5.92683 17.8798 5.12975L16.1203 3.37025C15.3234 2.57317 14.2426 2.12524 13.1155 2.125H5.31254C4.18537 2.125 3.10437 2.57277 2.30734 3.3698C1.51031 4.16683 1.06254 5.24783 1.06254 6.375ZM13.1155 4.25C13.6791 4.25012 14.2195 4.47408 14.6179 4.87262L16.1203 6.375H4.65379C4.14379 6.375 3.65504 6.46425 3.20242 6.63L3.18754 6.3325C3.19867 5.77631 3.42745 5.24667 3.82477 4.8573C4.22208 4.46793 4.75624 4.24989 5.31254 4.25H13.1155Z" fill="#FFCA85"/>
<path d="M28.6875 19.125C28.9693 19.125 29.2395 19.2369 29.4388 19.4362C29.6381 19.6355 29.75 19.9057 29.75 20.1875V23.375H32.9375C33.2193 23.375 33.4895 23.4869 33.6888 23.6862C33.8881 23.8855 34 24.1557 34 24.4375C34 24.7193 33.8881 24.9895 33.6888 25.1888C33.4895 25.3881 33.2193 25.5 32.9375 25.5H29.75V28.6875C29.75 28.9693 29.6381 29.2395 29.4388 29.4388C29.2395 29.6381 28.9693 29.75 28.6875 29.75C28.4057 29.75 28.1355 29.6381 27.9362 29.4388C27.7369 29.2395 27.625 28.9693 27.625 28.6875V25.5H24.4375C24.1557 25.5 23.8855 25.3881 23.6862 25.1888C23.4869 24.9895 23.375 24.7193 23.375 24.4375C23.375 24.1557 23.4869 23.8855 23.6862 23.6862C23.8855 23.4869 24.1557 23.375 24.4375 23.375H27.625V20.1875C27.625 19.9057 27.7369 19.6355 27.9362 19.4362C28.1355 19.2369 28.4057 19.125 28.6875 19.125Z" fill="#FFCA85"/>
</svg>
