<svg width="44" height="44" viewBox="0 0 44 44" fill="none" xmlns="http://www.w3.org/2000/svg">
<g id="light_mode_FILL0_wght200_GRAD0_opsz24 1">
<path id="Vector" d="M22 27.5C23.5278 27.5 24.8264 26.9653 25.8958 25.8958C26.9653 24.8264 27.5 23.5278 27.5 22C27.5 20.4722 26.9653 19.1736 25.8958 18.1042C24.8264 17.0347 23.5278 16.5 22 16.5C20.4722 16.5 19.1736 17.0347 18.1042 18.1042C17.0347 19.1736 16.5 20.4722 16.5 22C16.5 23.5278 17.0347 24.8264 18.1042 25.8958C19.1736 26.9653 20.4722 27.5 22 27.5ZM22 29.3333C19.9575 29.3333 18.2246 28.6217 16.8014 27.1986C15.3783 25.7754 14.6667 24.0425 14.6667 22C14.6667 19.9575 15.3783 18.2246 16.8014 16.8014C18.2246 15.3783 19.9575 14.6667 22 14.6667C24.0425 14.6667 25.7754 15.3783 27.1986 16.8014C28.6217 18.2246 29.3333 19.9575 29.3333 22C29.3333 24.0425 28.6217 25.7754 27.1986 27.1986C25.7754 28.6217 24.0425 29.3333 22 29.3333ZM9.16667 22.9167H2.75V21.0833H9.16667V22.9167ZM41.25 22.9167H34.8333V21.0833H41.25V22.9167ZM21.0833 9.16667V2.75H22.9167V9.16667H21.0833ZM21.0833 41.25V34.8333H22.9167V41.25H21.0833ZM12.3679 13.5737L8.40863 9.72726L9.68142 8.3628L13.5525 12.2763L12.3679 13.5737ZM34.3186 35.6372L30.4369 31.7131L31.6321 30.4263L35.5914 34.2727L34.3186 35.6372ZM30.4263 12.3679L34.2727 8.40863L35.6372 9.68142L31.7237 13.5526L30.4263 12.3679ZM8.3628 34.3186L12.2869 30.4369L13.5032 31.6321L9.69201 35.6266L8.3628 34.3186Z" fill="#E0DFDF"/>
</g>
</svg>
