<svg width="66" height="66" viewBox="0 0 66 66" fill="none" xmlns="http://www.w3.org/2000/svg">
<g id="logo_set">
<rect width="66" height="66" rx="12" fill="#4D4D4D"/>
<rect id="Rectangle 14" x="28.4438" y="22" width="22" height="22" rx="2.5" transform="rotate(-45 28.4438 22)" fill="#FFCA85"/>
<rect id="Rectangle 13" x="28.4438" y="44" width="22" height="22" rx="2.5" transform="rotate(-45 28.4438 44)" fill="#CD5757"/>
<rect id="Rectangle 16" x="6.44385" y="44" width="22" height="22" rx="2.5" transform="rotate(-45 6.44385 44)" fill="#A277FF"/>
<rect id="Rectangle 19" x="6.44385" y="22" width="22" height="22" rx="2.5" transform="rotate(-45 6.44385 22)" fill="#7FE4C2"/>
<g id="Rectangle 20">
<path d="M30.311 23.77C29.3347 22.7937 29.3347 21.2108 30.311 20.2345L35.2475 15.298C36.2238 14.3217 37.8067 14.3217 38.783 15.298L43.2026 19.7175C44.1789 20.6938 44.1789 22.2767 43.2026 23.253L38.2661 28.1895C37.2898 29.1658 35.7069 29.1658 34.7305 28.1895L30.311 23.77Z" fill="#FFCA85"/>
<path d="M30.2268 23.75C29.2504 22.7737 29.2504 21.1908 30.2268 20.2145L35.1632 15.278C36.1395 14.3017 37.7224 14.3017 38.6988 15.278L43.1183 19.6975C44.0946 20.6738 44.0946 22.2567 43.1183 23.233L38.1818 28.1695C37.2055 29.1458 35.6226 29.1458 34.6463 28.1695L30.2268 23.75Z" fill="#FFCA85"/>
</g>
</g>
</svg>
