<svg width="60" height="60" viewBox="0 0 60 60" fill="none" xmlns="http://www.w3.org/2000/svg">
<g id="help_FILL0_wght300_GRAD0_opsz24 1">
<path id="Vector" d="M29.9724 44.0384C30.6863 44.0384 31.2892 43.7919 31.7812 43.2991C32.2731 42.8062 32.5191 42.2028 32.5191 41.489C32.5191 40.7752 32.2727 40.1723 31.7798 39.6803C31.2869 39.1883 30.6836 38.9423 29.9698 38.9423C29.2559 38.9423 28.653 39.1888 28.1611 39.6816C27.6691 40.1745 27.4231 40.7779 27.4231 41.4917C27.4231 42.2055 27.6695 42.8084 28.1624 43.3004C28.6553 43.7924 29.2586 44.0384 29.9724 44.0384ZM30.0041 53.7499C26.7193 53.7499 23.6317 53.1266 20.7414 51.8799C17.851 50.6333 15.3368 48.9414 13.1988 46.8043C11.0607 44.6672 9.36802 42.1541 8.12081 39.265C6.8736 36.376 6.25 33.289 6.25 30.0042C6.25 26.7194 6.87333 23.6318 8.12 20.7414C9.36667 17.8511 11.0585 15.3369 13.1956 13.1988C15.3328 11.0607 17.8459 9.36809 20.7349 8.12088C23.624 6.87367 26.7109 6.25006 29.9958 6.25006C33.2806 6.25006 36.3682 6.8734 39.2585 8.12006C42.1489 9.36673 44.6631 11.0586 46.8011 13.1957C48.9392 15.3328 50.6319 17.8459 51.8791 20.735C53.1263 23.624 53.7499 26.711 53.7499 29.9958C53.7499 33.2806 53.1265 36.3682 51.8799 39.2586C50.6332 42.1489 48.9413 44.6631 46.8043 46.8012C44.6671 48.9393 42.154 50.6319 39.2649 51.8791C36.3759 53.1263 33.289 53.7499 30.0041 53.7499ZM29.9999 50C35.5833 50 40.3124 48.0625 44.1874 44.1875C48.0624 40.3125 49.9999 35.5833 49.9999 30C49.9999 24.4167 48.0624 19.6875 44.1874 15.8125C40.3124 11.9375 35.5833 10 29.9999 10C24.4166 10 19.6874 11.9375 15.8124 15.8125C11.9374 19.6875 9.99994 24.4167 9.99994 30C9.99994 35.5833 11.9374 40.3125 15.8124 44.1875C19.6874 48.0625 24.4166 50 29.9999 50ZM30.2024 19.2981C31.3559 19.2981 32.3541 19.6612 33.1971 20.3874C34.04 21.1136 34.4615 22.0213 34.4615 23.1106C34.4615 24.0273 34.1923 24.8478 33.6538 25.5721C33.1154 26.2965 32.5 26.9712 31.8077 27.5962C30.9002 28.4012 30.1012 29.2868 29.4107 30.2529C28.7202 31.2189 28.351 32.2949 28.3029 33.4808C28.2868 33.9359 28.4471 34.3173 28.7836 34.625C29.1202 34.9327 29.5128 35.0865 29.9615 35.0865C30.4423 35.0865 30.8493 34.9263 31.1826 34.6058C31.5159 34.2853 31.729 33.8926 31.822 33.4279C31.9887 32.5689 32.3436 31.8037 32.8869 31.1323C33.4302 30.4608 34.0187 29.8223 34.6525 29.2168C35.5636 28.3287 36.3589 27.3603 37.0383 26.3118C37.7178 25.2631 38.0576 24.0935 38.0576 22.8029C38.0576 20.8222 37.2771 19.1948 35.7163 17.9208C34.1554 16.6467 32.3333 16.0097 30.2499 16.0097C28.7628 16.0097 27.3605 16.339 26.0433 16.9977C24.726 17.6563 23.7003 18.617 22.9663 19.8799C22.7388 20.2677 22.6657 20.6759 22.7472 21.1044C22.8286 21.533 23.0486 21.8584 23.407 22.0806C23.8632 22.3346 24.3317 22.4071 24.8124 22.2981C25.2932 22.1891 25.7018 21.9151 26.0384 21.476C26.5448 20.8189 27.1578 20.2917 27.8773 19.8943C28.5969 19.4968 29.3719 19.2981 30.2024 19.2981Z" fill="#6A6A6A"/>
</g>
</svg>
