<svg width="45" height="45" viewBox="0 0 45 45" fill="none" xmlns="http://www.w3.org/2000/svg">
<g id="file_save_FILL0_wght300_GRAD0_opsz40 1">
<path id="Vector" d="M32.8005 34.1599L29.9146 31.2741C29.6886 31.0481 29.4182 30.9351 29.1033 30.9351C28.7884 30.9351 28.518 31.0481 28.2921 31.2741C28.0661 31.5 27.9531 31.7745 27.9531 32.0974C27.9531 32.4203 28.0661 32.6927 28.2921 32.9146L32.9507 37.5913C33.2446 37.8838 33.5875 38.03 33.9794 38.03C34.3713 38.03 34.7135 37.8838 35.006 37.5913L39.6826 32.9146C39.9086 32.6927 40.0215 32.4203 40.0215 32.0974C40.0215 31.7745 39.9086 31.5 39.6826 31.2741C39.4567 31.0481 39.1822 30.9351 38.8593 30.9351C38.5364 30.9351 38.264 31.0481 38.0421 31.2741L35.1562 34.1599V26.5253C35.1562 26.1915 35.0427 25.9118 34.8157 25.686C34.5887 25.4603 34.3075 25.3474 33.972 25.3474C33.6365 25.3474 33.3573 25.4603 33.1346 25.686C32.9118 25.9118 32.8005 26.1915 32.8005 26.5253V34.1599ZM28.3533 42.1755H39.6033C39.937 42.1755 40.2168 42.289 40.4425 42.516C40.6683 42.7429 40.7812 43.0242 40.7812 43.3597C40.7812 43.6952 40.6683 43.9743 40.4425 44.1971C40.2168 44.4198 39.937 44.5312 39.6033 44.5313H28.3533C28.0196 44.5313 27.7399 44.4178 27.5141 44.1908C27.2883 43.9638 27.1755 43.6826 27.1755 43.347C27.1755 43.0116 27.2883 42.7324 27.5141 42.5097C27.7399 42.2869 28.0196 42.1755 28.3533 42.1755ZM10.9014 37.0312C10.1195 37.0312 9.43531 36.7378 8.84869 36.1512C8.26206 35.5646 7.96875 34.8804 7.96875 34.0985V7.15139C7.96875 6.36955 8.26206 5.68531 8.84869 5.09869C9.43531 4.51206 10.1195 4.21875 10.9014 4.21875H23.2896C23.6969 4.21875 24.0821 4.29808 24.4454 4.45674C24.8087 4.61536 25.1209 4.82528 25.3822 5.0865L34.2884 13.9928C34.5496 14.254 34.7595 14.5662 34.9182 14.9295C35.0768 15.2928 35.1562 15.678 35.1562 16.0853V20.5156C35.1562 20.8494 35.0427 21.1291 34.8157 21.3548C34.5887 21.5806 34.3075 21.6935 33.972 21.6935C33.6365 21.6935 33.3573 21.5806 33.1346 21.3548C32.9118 21.1291 32.8005 20.8494 32.8005 20.5156V15.9495H25.631C25.0183 15.9495 24.4976 15.735 24.0688 15.3061C23.6399 14.8773 23.4255 14.3566 23.4255 13.7439V6.57445H10.9014C10.7572 6.57445 10.625 6.63455 10.5047 6.75474C10.3845 6.87492 10.3245 7.00714 10.3245 7.15139V34.0985C10.3245 34.2427 10.3845 34.375 10.5047 34.4952C10.625 34.6154 10.7572 34.6755 10.9014 34.6755H22.3438C22.6775 34.6755 22.9572 34.7889 23.183 35.0159C23.4087 35.2429 23.5216 35.5241 23.5216 35.8597C23.5216 36.1952 23.4087 36.4743 23.183 36.697C22.9572 36.9198 22.6775 37.0312 22.3438 37.0312H10.9014ZM10.3245 34.6755V6.57445V34.6755V34.6755Z" fill="#B7B2B2"/>
</g>
</svg>
