<svg width="45" height="45" viewBox="0 0 45 45" fill="none" xmlns="http://www.w3.org/2000/svg">
<g id="save_FILL0_wght300_GRAD0_opsz40 1">
<path id="Vector" d="M9.49519 38.4375C8.68931 38.4375 7.99906 38.1502 7.42444 37.5755C6.84981 37.0009 6.5625 36.3107 6.5625 35.5048V9.49525C6.5625 8.68937 6.84981 7.99912 7.42444 7.4245C7.99906 6.84987 8.68931 6.56256 9.49519 6.56256H30.3232C30.7251 6.56256 31.109 6.64189 31.475 6.80055C31.841 6.9592 32.1546 7.16914 32.4158 7.43036L37.5696 12.5842C37.8308 12.8454 38.0408 13.159 38.1994 13.525C38.3581 13.8909 38.4374 14.2748 38.4374 14.6767V35.5048C38.4374 36.3107 38.1501 37.0009 37.5755 37.5755C37.0008 38.1502 36.3106 38.4375 35.5047 38.4375H9.49519ZM36.0817 14.4904L30.5096 8.91826H9.49519C9.32691 8.91826 9.18867 8.97236 9.08048 9.08055C8.9723 9.18873 8.9182 9.32697 8.9182 9.49525V35.5048C8.9182 35.6731 8.9723 35.8113 9.08048 35.9195C9.18867 36.0277 9.32691 36.0818 9.49519 36.0818H35.5047C35.673 36.0818 35.8112 36.0277 35.9194 35.9195C36.0276 35.8113 36.0817 35.6731 36.0817 35.5048V14.4904ZM22.4926 32.2595C23.6864 32.2595 24.7061 31.8393 25.5515 30.9988C26.3969 30.1583 26.8196 29.1411 26.8196 27.9472C26.8196 26.7534 26.3993 25.7337 25.5588 24.8883C24.7183 24.0429 23.7012 23.6202 22.5073 23.6202C21.3135 23.6202 20.2938 24.0405 19.4484 24.881C18.603 25.7215 18.1803 26.7387 18.1803 27.9325C18.1803 29.1264 18.6006 30.146 19.4411 30.9914C20.2816 31.8368 21.2987 32.2595 22.4926 32.2595ZM13.2788 17.988H25.6922C26.1107 17.988 26.4597 17.8462 26.7392 17.5628C27.0188 17.2793 27.1585 16.9323 27.1585 16.5216V13.2789C27.1585 12.8604 27.0188 12.5114 26.7392 12.2319C26.4597 11.9523 26.1107 11.8126 25.6922 11.8126H13.2788C12.8604 11.8126 12.5114 11.9523 12.2318 12.2319C11.9523 12.5114 11.8125 12.8604 11.8125 13.2789V16.5216C11.8125 16.9323 11.9523 17.2793 12.2318 17.5628C12.5114 17.8462 12.8604 17.988 13.2788 17.988ZM8.9182 14.4904V36.0818V8.91826V14.4904Z" fill="#B7B2B2"/>
</g>
</svg>
