<svg width="25" height="30" viewBox="0 0 25 30" fill="none" xmlns="http://www.w3.org/2000/svg">
  <path d="M23.1 14.8268C23.1455 14.853 23.1645 14.8782 23.1757 14.8983C23.1895 14.9232 23.2 14.9583 23.2 15C23.2 15.0417 23.1895 15.0768 23.1757 15.1017C23.1645 15.1218 23.1455 15.147 23.1 15.1732L2.1 27.2976C2.05454 27.3238 2.0232 27.3277 2.00024 27.3273C1.97177 27.3268 1.93611 27.3184 1.9 27.2976C1.86389 27.2767 1.83878 27.25 1.82411 27.2256C1.81228 27.2059 1.8 27.1768 1.8 27.1244L1.8 2.87564C1.8 2.82316 1.81228 2.79405 1.82411 2.77437C1.83878 2.74997 1.86389 2.72328 1.9 2.70244C1.9361 2.68159 1.97177 2.67318 2.00023 2.67268C2.0232 2.67228 2.05455 2.6762 2.1 2.70244L23.1 14.8268Z" stroke="#7FE4C2" stroke-width="3.6"/>
</svg>